<svg width="15" height="16" viewBox="0 0 15 16" fill="none" xmlns="http://www.w3.org/2000/svg">
<path d="M1 7C0.447715 7 0 7.44772 0 8C0 8.55228 0.447715 9 1 9V7ZM13.725 8.70711C14.1155 8.31658 14.1155 7.68342 13.725 7.29289L7.36099 0.928932C6.97047 0.538408 6.3373 0.538408 5.94678 0.928932C5.55625 1.31946 5.55625 1.95262 5.94678 2.34315L11.6036 8L5.94678 13.6569C5.55625 14.0474 5.55625 14.6805 5.94678 15.0711C6.3373 15.4616 6.97047 15.4616 7.36099 15.0711L13.725 8.70711ZM1 9H13.0178V7H1V9Z" fill="white"/>
</svg>
